<?xml version="1.0" encoding="utf-8"?>
<!-- Generator: Adobe Illustrator 23.0.6, SVG Export Plug-In . SVG Version: 6.00 Build 0)  -->
<svg version="1.1"
	 id="svg2" xmlns:cc="http://creativecommons.org/ns#" xmlns:dc="http://purl.org/dc/elements/1.1/" xmlns:rdf="http://www.w3.org/1999/02/22-rdf-syntax-ns#" xmlns:svg="http://www.w3.org/2000/svg"
	 xmlns="http://www.w3.org/2000/svg" xmlns:xlink="http://www.w3.org/1999/xlink" x="0px" y="0px" viewBox="0 0 1200 800"
	 style="enable-background:new 0 0 1200 800;" xml:space="preserve">
<style type="text/css">
	.st0{fill-rule:evenodd;clip-rule:evenodd;fill:#253773;}
	.st1{fill-rule:evenodd;clip-rule:evenodd;fill:none;}
</style>
<g id="g4">
	<path id="path12" class="st0" d="M356,355.7c-0.6,2.3-12,18.3-13.9,20.9c-25.2,34.4-53.8,64.5-96.1,78.5
		c-6.4,2.1-22.7,5.5-30.1,4.8c-10.1-0.9-19.6-3.2-26.4-8.9c-16.9-13.9-6.4-35.5,4.2-47.8c24.9-28.7,74.8-39.6,112.9-44.3
		C318.9,357.5,344.6,355,356,355.7z M390.2,310.2c0,0.5-13.2,38.2-14.4,40.3l-7.1,0c0.1-1.2,9.3-18.4,10.5-20.8
		c2.6-5,8.9-16.5,10.6-20.5c0.5-1.7,0.4-1.3,1.2-2.6c0.7-1.3,0.2-1,1.5-2l-1.2,4.4C390.5,310.7,390.8,309.7,390.2,310.2L390.2,310.2
		z M160.5,435.1v5.5c0.1,0.1,0.1,0.1,0.1,0.3l1.7,9.5c6.4,22,27.9,31.6,50.5,30.8c33.3-1.2,68.8-26.7,91.3-47.7
		c17-15.8,30.1-30.4,43.7-49.5c4.5-6.2,10-14.2,13.8-21c1.4-2.4,2.8-5.1,4.3-7.4l7,0c-0.1,1.8-22.6,65.7-23.9,69.2
		c-12.5,34.8,11,40.8,23.5,31.3c2.5-1.9,10-9.5,10.6-12.9c-0.9-1.2-1.4-1.6-3.1-2c-5.4,8.9-19.3,8.8-14.8-7.1
		c1.6-5.8,6.5-19.8,8.6-26.1c6.1-17.9,11.1-34.5,17.4-52.3l23.4-0.1l0.8-5l-23,0c-0.1-0.9,19.9-61.1,23.1-70.5
		c1.2-3.5,7.4-21.8,7.6-24h-19.7c-0.4,2.3-8.5,20.9-10,24.4c-10,22.8-21.9,49.5-34.4,70.1c-11.2,0.9-23.2,0.1-34.3,1
		c-34.8,2.8-56,5.2-90.9,15.4c-25.2,7.3-49.2,21.5-63.6,42.4c-2.5,3.6-4.4,7.1-6.2,11.6c-3,7.6-2.8,11.9-3.5,13.9
		C160.6,434.9,160.6,435,160.5,435.1L160.5,435.1z"/>
	<path id="path14" class="st0" d="M1013,369.6c-1.3,10.1-0.2,5.7-3,15.7c-5.6,20.5-16.7,47-29.9,62.9c-8.1,9.7-18,9.3-17.7-6.8
		c0.2-9.3,3.6-21.7,6.6-30.2c3.2-9.1,6.9-17.3,11.6-25.8c4.2-7.8,15.6-30.8,26.7-28.4C1012.9,358.2,1013.8,364,1013,369.6z
		 M1039.5,350.7v-1.9l-13.2,0c-1.8,3.7-3.7,8-6,11.6c-2.4-1.7-6.2-12.7-20.1-10.1c-21.8,4.1-36.7,28.5-45.6,46.9
		c-6.4,13.2-13.3,33.2-6.9,49.6c2.8,7.2,8.8,12.3,18.5,12.2c4.8-0.1,8.9-1.2,12.4-3c5.1-2.6,7.6-5.6,9.4-6.5
		c-0.2,2.3-8.6,29.3-9.5,31.9c-4.2,13.5-8.6,35.2-19.8,42.2c-3.9,2.5-11.2,4.3-16.6,1.6c-12.8-6.4-10-26.5-10.4-29.7
		c-0.3-2.4,0.8,2.1-0.3-1c0-0.1-0.1-0.2-0.1-0.3c-1.6,0.3-0.8-0.3-1.4,1.3c-1.7,4.1-9.4,30-9.4,30.4c3.8,0.8,3.1-1.3,6.2-3.1
		c5.5-3.1,9.6,4.7,20,8.5c11.2,4.2,22.6,0.4,29.9-5.9c8.3-7.1,10.2-13.5,14.1-25.5c9.7-29.8,19.9-60.2,29.1-89.6
		c4.6-14.7,10.2-30.3,14.6-44.8c0.8-2.6,1.6-5,2.4-7.5L1039.5,350.7L1039.5,350.7z"/>
	<path id="path16" class="st0" d="M739.3,359.5c12.6-3.2,7.3,19.6,5.8,25.2c-5,18.9-11.6,34.5-21.4,50.4
		c-3.3,5.4-11.5,16.9-17.2,18.7c-6.5,2.1-8.4-4.1-8.4-9.5c0-5.4,1.6-10.7,2.8-15.3c2.6-9.3,5.2-18.3,8.9-27
		C715.3,389.4,725.6,363,739.3,359.5L739.3,359.5z M713.3,290.1c3.8,0.5,11.6-1.3,13,1.9c1.2,2.7-1.7,9.6-2.4,11.9
		c-2.4,7.6-4.6,14.9-7.3,22.6c-5.1,14.8-9.8,30.4-14.7,45.4c-5.1,15.6-9.6,30-14.6,45.1c-4.5,13.6-10.6,39.2,6.6,44
		c8.1,2.2,18.4-2.2,23.7-5.5c6.2-3.8,11.9-9.1,16.3-13.6c6.5-6.5,8.2-8.5,13.2-16.6c3.9-6.4,7.4-12.8,10.3-19.9
		c4.9-12,13-35,5.4-48.5c-3.7-6.7-11.4-9.9-21.1-7.8c-10.2,2.1-16.1,10.7-18.4,12.1c0.1-1.8,10.2-33.5,11.6-37.6
		c1.2-3.6,11.7-36.7,11.7-37.8c-9.3-0.2-19.1,0.1-28.5,0c-2,0-2.6-0.1-3.4,1.2l-0.8,1.3C713.5,288.8,713.3,289.2,713.3,290.1
		L713.3,290.1z"/>
	<path id="path18" class="st0" d="M784.2,369.6c0.8,0.9,1.6,1.8,2.9,2c1.6-1.7,5.8-8,8.6-6.4c1.4,1.3-1.3,8.1-2,10.3
		c-5.2,15.2-10.8,32.7-15.8,48.1c-1.1,3.4-2,6.4-3.1,9.7c-1,2.9-2.5,7-3,10.1c-1.3,7.7,2.1,15.2,8.7,16.5
		c10.6,2,25.6-11.8,31.9-19.2c2.2-2.5,3.8-4.5,5.7-7.1c1.2-1.6,4.2-6.8,5.8-7.7c-0.1,2.1-1.4,6.5-1.9,8.8
		c-6.5,25.9,7.1,30.1,19.2,19.5c2.6-2.3,8.6-8.7,9.3-11.8c-0.7-1-1.4-1.7-2.6-2.1c-2.4,1.2-5.2,8.4-10.6,7.3
		c-1.8-2.9,0.9-9,2.1-12.4c6.5-18.7,14.2-41.6,20-60.4c1.1-3.5,7.5-23,7.5-24.9l-17.4,0l-4.8,15.5c-3,8.5-7.7,21.4-11.3,29.2
		c-2.2,4.7-4.1,9.7-6.5,14.1c-4.8,8.9-9.5,17.3-15.8,25.1c-2.3,2.9-6.5,8-9.9,10.3c-5.6,3.8-12,3-8.8-6c3.5-9.9,6.8-20.5,9.9-30.6
		c3.1-10.1,6.6-20.7,10-30.9c2.5-7.4,10.1-30.4-6.2-26.4C797.7,352.2,785.3,365,784.2,369.6L784.2,369.6z"/>
	<path id="path20" class="st0" d="M625.6,381.7c0.1-2.2,1.2-6.4,1.7-8.6c1.8-8.7,6.1-21.9-3.8-22.1c-5.7-0.1-10.9,3.7-14.4,6.4
		c-2.7,2.1-8.9,8.6-9.5,11.2c0.8,0.9,1.7,1.8,2.9,2c1.3-1.5,6.1-8.2,9.4-6.3c1.9,2.1-1.1,9.7-1.9,12.1c-3.8,11-7.7,23.5-11.4,34.8
		c-2.5,7.8-5,15.5-7.6,23.3c-1.1,3.4-7.4,21.7-7.3,23.6l16.7-0.1l9.2-27.8c6.7-20.9,16.9-45.2,33.7-59.5c2.3-2,8.1-7.7,11.9-6.2
		c2,2.3-2.5,13-3.4,15.8c-5,15-10.6,32.7-15.8,47.1c-1.8,5.1-4,10.8-4.6,16.4c-0.7,6.8,0.4,13.7,5.5,15.4
		c11.5,3.7,25.5-14.6,25-16.5c-0.9-1.2-1-1.5-2.5-1.9c-1.6,0.8-5.8,7-8.4,4.4c-1.8-1.8,1.2-9.1,1.8-10.8c2.4-6.9,4.5-13.6,6.7-20.4
		c4.4-13.6,9.1-27.1,13.4-40.6c1.8-5.6,5.8-16.7,0.3-21.6c-5.2-4.7-15.9,0.8-20,3.3C639.8,363.3,627.3,380.5,625.6,381.7
		L625.6,381.7z"/>
	<path id="path22" class="st0" d="M441.6,291.5c7.1,0.7,13.3-1.8,13.1,4.1c-0.1,3.2-2.9,10.5-3.9,13.6l-17,52.1
		c-2.8,8.5-6,17.4-8.5,26c-4.7,15.9-11.8,35.4-17,52.1c-1.3,4.3-2.2,10.3-0.3,14.5c1.6,3.5,6.2,6.5,11.8,5.2
		c7.5-1.8,16.8-12.5,17.7-16.9c-1.2-0.8-1.4-1.5-2.9-1.8c-2.4,2.2-5.8,7.9-10.4,6.6c-2.6-2,3.3-16.7,4.6-20.5
		c2.3-6.7,4.5-13.2,6.6-19.8c4.2-13.1,8.7-26.5,13.1-39.5c4.5-13.2,8.5-26.5,13.1-39.5c2.3-6.4,4.3-13.1,6.6-19.8
		c1.3-3.8,6.3-17.3,6.5-20.6l-31.1,0C442.8,288.4,441.6,290.3,441.6,291.5L441.6,291.5z"/>
	<path id="path24" class="st0" d="M570.7,366c-1.9,7.5-9.6,19.6-15,25.7c-3.5,4.1-6.6,6.9-10.8,9.8c-4.6,3.1-11.8,7.6-7.7-3.5
		c4.5-12.1,14.8-28.8,24.8-36.7C567,357.4,573.5,355.1,570.7,366L570.7,366z M561.6,440.7c-0.8-0.7-1.7-1.5-2.8-1.8
		c-4,3.4-5.2,7.2-12.8,11.1c-6.4,3.3-13,3.4-16.7-2.9c-5.8-9.8,1.1-29.8,5.3-37.9c6.9-1.2,10-0.4,17.9-4.6
		c13.7-7.2,28.1-18.5,31.7-35.4c1.6-7.4-0.3-13.9-4.6-16.9c-5.3-3.6-12.4-2.6-18.4-0.5c-10.7,3.6-19.3,11.8-25.6,19.6
		c-10.9,13.4-27.1,40.9-24.7,65c2.2,22.9,24.5,27.4,39.6,16.1C553.4,450.3,560.5,443.8,561.6,440.7L561.6,440.7z"/>
	<path id="path26" class="st0" d="M914.4,371.7c0.4-3.1,3.1-9.1,1.8-15.4c-1-4.9-4.4-8.6-10.4-6.6c-7,2.3-17.2,13-18.3,17.7
		c1,1.4,1.4,1.5,2.8,2c3.7-5.3,14-12.4,9.4-0.2c-0.6,1.7-1.3,3.9-1.9,5.9c-3.5,11.6-8,23.9-11.5,35.5c-2.4,8-5,15.7-7.6,23.8
		c-1.1,3.2-7.7,22.1-7.2,23.9l17.7,0c1-1.4,7.4-22.7,8.6-26.3c6.6-20.4,12.6-44.9,25.9-61.6c2.4-3,6-7.2,8.8-9
		c3.9-2.5,11.3-3.9,9.5,4.1c-1.4,6.2,1.3,10,7.9,9.1c8.7-1.2,12.3-17.2,6.8-23.6c-9.1-10.5-26.9,4.5-33.8,11.5
		C921,364.4,915.4,371.1,914.4,371.7L914.4,371.7z"/>
	<path id="path30" class="st0" d="M487.9,350.6c-3.8,0.2-12.1-0.6-15,0.3c-0.7,0.4-1,2.5-1.3,3.7c-0.3,1.2-0.9,2.4-0.7,3.8l14.5,0.1
		c-0.3,2.2-4.3,13.9-5.3,17c-5.2,16.2-11.4,33.7-16.3,49.8c-2.9,9.5-11.5,27.4-1.5,33.1c11,6.3,25.8-12.5,26.2-15.9
		c-0.8-0.8-1.7-1.5-2.8-1.9c-2.4,1.8-5.6,7.4-9.9,6.8c-2.1-2.9,0.2-8.5,1.3-11.9l10.8-32.9c3-9.3,8.1-23.8,10.7-33
		c1-3.4,2.4-8,3.8-11.2c6.5-0.2,13.3-0.1,19.8-0.1l1.9-7.7c-5.8-0.3-12.9,0-18.9-0.1c-0.2-2.4,6.3-18.6,6.5-21.9
		c-1.4,0-17,4.6-17.6,5.1C492.3,335,489.5,347.9,487.9,350.6L487.9,350.6z"/>
	<path id="path36" class="st0" d="M506.8,502c-0.1-2.1,0.5-2.7-1.4-2.9c-0.9-0.1-3.5,0-4.5,0.1c-0.4,8.9-0.2,20.2,0,29.2
		c3.8,0.2,5.5,0.7,5.9-1.2l0-4.2c0-3.7-0.6-14.9,0.7-16.5c2-2.4,12.6-7.2,12.6,5.1l0,14.6c0,2.4-0.2,2.3,3.2,2.3
		c3.6,0,2.7,0.8,2.7-9.1c0-2.7-0.6-10.4,0.3-12.3c1-2.3,5.1-3.9,8.7-3.3c4.5,0.7,4.3,5.6,4.3,9.5l0,14.9l5.9,0.1l0.1-16.1
		c0-6.3-0.5-10.7-6-12.8c-2.4-0.9-5.8-1-8.4-0.1c-2.4,0.9-3.9,2.8-5.9,3.8c-1.1-0.6-0.9-0.8-1.7-1.6c-0.6-0.7-1-1-1.8-1.4
		C514.2,495.9,508.5,501.7,506.8,502L506.8,502z"/>
	<path id="path38" class="st0" d="M346.7,502.1l-0.1-2.8c-1.2-0.3-3.2-0.3-4.4-0.2c-2.2,0.1-1.6,0.9-1.6,3.2l0,22.8
		c0,1.8-0.5,3.1,1,3.4c0.7,0.1,3.9,0,4.7,0c0.6-1.6,0.3-13.8,0.3-17.2c0-2.2-0.5-3.5,1-5c2.2-2.1,5.7-3.4,9-2.2
		c3.2,1.2,3.4,4.6,3.4,8.6l0,15.7l5.6,0.1l0.1-17.5c0-2.6-0.6-4.2,3.1-6.2c1.8-1,5.5-1.6,7.7-0.3c3.1,1.9,2.5,7.3,2.5,11.4l0,12.3
		c2.5,0.4,3.4,0.2,5.9,0.1c0.3-4.3,0.1-9.2,0.1-13.5c0-4.1,0.5-8.7-1.7-11.9c-1.9-2.8-5.2-4.4-9.4-4.1c-5,0.3-7.2,3.6-9.2,4.6
		c-1.3-1.1-1.4-2-3.2-3.1C354.5,495.8,347.9,501.6,346.7,502.1L346.7,502.1z"/>
	<path id="path40" class="st0" d="M726.3,502.2l-0.1-3l-5.6-0.1l-0.2,29.2l5.8,0c0.4-4.8,0.1-10.8,0.1-15.7c0-3.2-0.6-4.8,1.2-6.5
		c1.4-1.3,2.9-2.3,5.5-2.4c9.8-0.4,5.9,10.8,6.8,24.5l5.6,0.1c0.3-4.9,0.1-10.8,0.1-15.7c0-2.9-0.6-5,1.2-6.6
		c1.5-1.4,3.3-2.2,5.5-2.3c10-0.4,5.6,11,6.7,24.6l5.7,0.1c0.3-4.3,0.1-9.3,0.1-13.6c0-4.8,0.5-8.6-1.6-11.9
		c-2.9-4.5-9.9-5.3-14.6-2.5c-1.6,1-2.6,2.3-4.1,2.8c-0.6-0.4-0.1,0-0.8-0.7c-0.9-1-1-1.5-2.6-2.4c-2.9-1.8-7.4-1.8-10.5-0.3
		C729.2,500.3,727.3,502,726.3,502.2L726.3,502.2z"/>
	<path id="path42" class="st0" d="M281.7,522.2c-0.2-2.8-0.1-6-0.1-8.9c0-2.1-0.8-6.5,0.8-7.8c1.4-1.1,4.6-1.7,7.1-1.5
		c8.4,1,9.2,12.1,5.4,16.5C292.4,523.6,285.3,524.7,281.7,522.2z M275.7,526.9c34.9,11.1,33.7-27.5,15-28.4c-6.5-0.3-5.9,1.1-9,1.7
		l-0.2-16.2l-5.5,0C275.2,485.8,275.5,522.2,275.7,526.9L275.7,526.9z"/>
	<path id="path44" class="st0" d="M661.4,509c0-1.7-0.4-2.6,0.9-3.5c3.9-2.9,10.4-1.4,12.8,1.8c2.4,3.3,2.7,10-0.4,13.5
		c-3.1,3.5-9.2,3.4-13.2,1.6L661.4,509L661.4,509z M655.5,526.9c4.2,2.1,13.1,2.8,18.1,1.1c13.7-4.7,10.7-21.7,4.5-26.6
		c-7.2-5.6-14.9-1.4-16.6-1.2l0-16.1l-5.9,0.1L655.5,526.9L655.5,526.9z"/>
	<path id="path46" class="st0" d="M428.5,521.8c-7,4.7-15.5,1.2-15.5-8.1c0-4.6,1.7-7.5,4.7-9.1c4-2.1,7.6-0.9,10.9,1L428.5,521.8z
		 M428.6,500.4c-2.3-0.5-2.4-1.8-7.4-1.9c-3.3,0-5.5,0.5-7.8,2c-8.8,5.4-8.7,20.2-0.9,25.8c4.3,3.2,10.2,3.4,15.5,0.9
		c1.6,0.7-0.3,0.1,1,0.8c0.8,0.5,0.3,0.3,1.5,0.4c1.1,0.1,2.9,0,4-0.1l0.1-44.1l-5.7,0L428.6,500.4L428.6,500.4z"/>
	<path id="path48" class="st0" d="M864.1,510.5c-0.4-8.8,15-9.4,14.8,0L864.1,510.5z M885.1,519.7c-1.6,0.1-3.9,1.9-5.8,2.6
		c-7.8,2.8-16,0.1-15.4-7.5l21.4,0c2.4-19.1-22.7-21.5-27.2-6.6c-2.4,8.1,1.3,15.9,6.7,19c5.7,3.2,16.2,1.6,20.3-2.2L885.1,519.7z"
		/>
	<path id="path50" class="st0" d="M313.7,510.5c-0.1-3.9,3.2-6.8,7.5-6.9c4,0,7.4,2.8,7.4,6.9L313.7,510.5L313.7,510.5z
		 M334.7,519.7c-1.3,0.2-4,1.9-5.9,2.6c-7.7,2.6-15.6,0.3-15.2-7.5l21.4,0c2.4-19.2-22.8-21.6-27.1-6.3c-2.3,8.2,1.4,15.9,6.7,18.7
		c5.8,3.1,16.2,1.9,20.3-2.1L334.7,519.7L334.7,519.7z"/>
	<path id="path52" class="st0" d="M693.5,510.4c0.1-9.1,14.8-9.1,14.9,0l-3.5,0l-7.1,0L693.5,510.4L693.5,510.4z M714.4,519.8
		c-1.2,0.1-4,1.9-5.9,2.6c-7.6,2.8-15.8,0-15.3-7.5l21.6-0.1c1.9-19.4-22.9-21.1-27.2-6.6c-3.8,12.9,6.7,28.1,26.9,17.2L714.4,519.8
		L714.4,519.8z"/>
	<path id="path54" class="st0" d="M464.5,516.1c-3,12.3-21.3,7.9-18-5.2C449.5,499.4,467.6,503.3,464.5,516.1z M455.3,528.8
		c9.4,0,16.1-7.1,15.8-15.5c-0.3-8.4-7.1-14.8-15.8-14.8C434.9,498.7,435.2,528.8,455.3,528.8L455.3,528.8z"/>
	<path id="path56" class="st0" d="M789.9,499.1l-6,0.1c0.1,1.1,12.5,27.6,13.8,29.7l2.7-0.1c1.7-3.2,13.1-28.3,13.2-29.7l-6,0.1
		c-0.7,0.7-6.1,13.5-7.3,16.4c-0.5,1.1-0.5,1.4-1.2,2.1c-0.8-0.7-1-1.3-1.4-2.3c-0.3-0.7-0.7-1.5-1.1-2.4
		C795.2,510,791,500.3,789.9,499.1L789.9,499.1z"/>
	<path id="path58" class="st0" d="M832.5,499.1l-6.3,0.1c0.2,1.4,12.2,26.4,13.9,29.7l2.7-0.1c1.4-2.2,13.1-28.2,13.2-29.7l-6,0.1
		c-2.2,3.5-6.9,17.3-8.7,18.8L832.5,499.1L832.5,499.1z"/>
	<path id="path62" class="st0" d="M617,543.3l4.3,0.1l0-64.3l-4.3,0L617,543.3L617,543.3z"/>
	<path id="path70" class="st0" d="M911.9,501.6c-1.5-2.2-5.8-3.7-9-2.5c-3,1.2-4.3,4.9-6,5.6l-0.2-5.6l-5.6,0
		c-0.6,3.2-0.2,10.8-0.2,14.5c0,3.4-0.7,12,0.3,14.4c1.2,0.4,4.1,0.4,5.3-0.1c1.7-4.7-3-21,5.4-23.4c3.6-1.1,4.8,1.1,7,1.9
		L911.9,501.6L911.9,501.6z"/>
	<path id="path72" class="st0" d="M494.9,506.3c0.7-1.5,2.6-3.4,2.6-5.1c-3.8-2.9-8-4.1-11.9,0.1c-0.7,0.7-0.7,0.8-1.3,1.6
		c-0.9,1.2-0.4,1-1.8,1.4l-0.1-5c-1.2-0.2-2.9-0.3-4.1-0.2c-2,0.1-1.7,0.2-1.7,2.1l0,27l5.7,0.1c0.4-5.3-0.8-14.2,0.7-18.5
		C486.5,500.4,493.1,506,494.9,506.3L494.9,506.3z"/>
	<path id="path74" class="st0" d="M584,506.3c1.1-0.9,2.5-3.2,2.9-4.7c-1.4-2.1-5.8-3.8-8.9-2.5c-3.3,1.4-4.1,4.4-6.1,5.7l-0.1-5.6
		l-5.7,0l0.1,29.2l5.6-0.1c0.3-4.9-0.7-14.4,0.6-18.2C575.8,500.3,582.8,506,584,506.3L584,506.3z"/>
	<path id="path76" class="st0" d="M558.3,499.2c-7.1-0.8-5.8,0.3-5.8,4.5c0,3.4,0,6.9,0,10.3c0,15.9-1.7,14.9,5.7,14.3
		C558.6,526.8,558.6,501.7,558.3,499.2z"/>
	<path id="path80" class="st0" d="M817.2,528.3l5.8-0.1l0-29l-5.9,0L817.2,528.3L817.2,528.3z"/>
	<path id="path88" class="st1" d="M617.1,479.1l4.3,0l0,64.3l-4.3-0.1L617.1,479.1L617.1,479.1z M616.8,543.9h4.8
		c0.6-3.4,0.4-63.7-0.1-65.3c-1.4-0.2-3.5-0.4-4.7,0.2C616.2,480.1,616.1,541.8,616.8,543.9L616.8,543.9z"/>
	<path id="path90" class="st0" d="M818.4,487.7c-3.5,2.3-0.5,7.9,3.5,5.6C825.5,491.2,821.9,485.3,818.4,487.7z"/>
	<path id="path92" class="st0" d="M554.1,487.6c-3.9,1.7-1.5,7.5,2.6,5.9C560.2,492.2,558.6,485.7,554.1,487.6z"/>
</g>
</svg>
