<?xml version="1.0" encoding="utf-8"?>
<!-- Generator: Adobe Illustrator 23.0.6, SVG Export Plug-In . SVG Version: 6.00 Build 0)  -->
<svg version="1.1" id="Camada_1" xmlns="http://www.w3.org/2000/svg" xmlns:xlink="http://www.w3.org/1999/xlink" x="0px" y="0px"
	 viewBox="0 0 1200 800" style="enable-background:new 0 0 1200 800;" xml:space="preserve">
<style type="text/css">
	.st0{fill-rule:evenodd;clip-rule:evenodd;fill:#9D9E9C;}
</style>
<path class="st0" d="M307.85,349.17c-2.83,10.47-18.44,3.83-13.31-4.9c10.53-8.02,12.35-13.83,10.49-17.19
	c-27.56-23.4-149.17,121.65-117.47,144.51c20.03,1.94,71.79-60.15,112.82-114c1.18-2.29,15.99,4.58,15.63,8.64
	c-14.72,31.82-33.78,89.12-31.31,91.65c5.19,17.31,59.92-18.26,86.27-52.07c7.59-3.23,14.3-2.63,19.07,6.4
	c1.97,5.63,3.94,11.27,5.9,16.9c-6.71,14.31-31.56,31.92-28.45,39.63c4.63,7,58.88-11.6,90.2-70.24l-31.12,4.83
	c-8.46,0.67-3.78-12.9,0.1-13.41l47.82-11.52c3.92-1.1,11.37-12.99,17.06-19.48c6.88-8.21,17.64,5.32,7.96,15.48l-3.69,3.55
	c39.5-5.98,78.93-11.54,117.76-14.11c5.99-0.81,18.07,5.11,11.62,15.61c-51.5,0.26-94.21,7.23-141.18,15.86
	c-29.59,31.26-47.6,55.49-44.94,67.14c2.05,8.04,31.49,0.98,65.38-24.2c15.28-25.8,47.92-36.69,67.65-26.49
	c12.09,9.21-15.98,26.69-59.93,46.12c-7.57,22.61,26.16,9.28,83.08-24.2c10.04-35.57,75.25-120.06,95.87-107.48
	c19.56,13.43-59.12,123.41-78.61,114.78c-8.39,28.77-1.51,37.23,27.7,15.99c25.19-36.31,86.05-63.4,88.99-32.89
	c10.54-12.57,23.09-11.45,21.8-2.74c2.92,9.34-19.79,24.87-14.07,36.99c3.48,5,59.48-31.4,66.74-55.72
	c20.31-3.2,29.24,14.2,22.25,53.48c32.02-16.75,54.72-38.02,59.14-53.42c20.97-2.05,26.63,13.09,22.13,50.64
	c17.96-6.25,22.14-17.81,43.62-27.86c24.82-19.79,56.14-19.27,60.8-7.97c2.62,7.28-36.69,30.67-62.2,39.49
	c-10.95,22.17,28.41,13.22,88.08-26.95c-23.04,25.81-98.9,97.15-107.59,27.38c-48.36,33.32-83.08,34.34-91.49,16.57
	c2.96-11.47,18.87-10.67,31.41-4.47c19.9-0.41,28.1-20.85,22.17-49.64c-42.15,46.93-110.91,83.13-133.34,55.85
	c-3.96-5.22,7.9-13.1,19.59-10.29c26.72,14.65,40.36-15.78,32.67-45.72c-62.21,61.74-97.31,70.49-91.45,27.97
	c-43.54,33.05-74.47,48.31-79.71,23.91c-29.75,15.8-47.49,11.84-47.68-21.01c-53.31,38.77-84.52,40.55-97.52,11.07
	c-40.03,22.72-66.04,25.3-69.11-4.67c-33.42,31.58-110.84,42.66-46.74-24.52c-1.51-1.07-9.36-9.28-10.87-10.35
	c-43.05,58.72-114.26,82.76-96.31-8.99c-40.09,57.81-73.53,84.6-95.84,70.85c-44.37-32.38,30.84-148.42,114.46-170.88
	C316.06,309.22,317.51,324.78,307.85,349.17L307.85,349.17z M956.81,391.77c-4.64,4.04,11.02,2.41,16.23,4.08l23.92-14.83
	c8.2,9.19,16.43,18.93,28.51,12.46c-7.97-10.45-14.41-31.85-24.02-31.37C993.23,361.79,971.69,381.88,956.81,391.77L956.81,391.77
	L956.81,391.77z M520.79,441.85c-0.23,5.01,37.29-19.22,35.67-21.34C554.34,415.1,522.94,426.52,520.79,441.85L520.79,441.85
	L520.79,441.85z M619.52,421.17L619.52,421.17c26.27-20.05,68.86-71.17,60.46-77.8C674.04,337.24,635.85,390.21,619.52,421.17
	L619.52,421.17z M723.29,430.79c-5.45,0.6-11.17,0.6-16.62-1.52C642.12,448.91,633.5,507.11,723.29,430.79L723.29,430.79
	L723.29,430.79z M956.82,442.2c2.73,3.47,38.25-18.75,36.03-22.05C987.93,413.83,952.75,434.16,956.82,442.2L956.82,442.2z"/>
</svg>
