<?xml version="1.0" encoding="utf-8"?>
<!-- Generator: Adobe Illustrator 23.0.6, SVG Export Plug-In . SVG Version: 6.00 Build 0)  -->
<svg version="1.1"
	 id="svg2" xmlns:cc="http://creativecommons.org/ns#" xmlns:dc="http://purl.org/dc/elements/1.1/" xmlns:rdf="http://www.w3.org/1999/02/22-rdf-syntax-ns#" xmlns:svg="http://www.w3.org/2000/svg"
	 xmlns="http://www.w3.org/2000/svg" xmlns:xlink="http://www.w3.org/1999/xlink" x="0px" y="0px" viewBox="0 0 1200 800"
	 style="enable-background:new 0 0 1200 800;" xml:space="preserve">
<style type="text/css">
	.st0{fill-rule:evenodd;clip-rule:evenodd;fill:#777777;}
</style>
<g>
	<path id="path4" class="st0" d="M264.4,392.6c-4.3,2.6-8.6,4.4-13,5.5c-4.4,1.1-9.6,1.6-15.8,1.6h-32.4l35.7-88.4h25.4
		c6.4,0,11.2,0.2,14.3,0.6c3.1,0.4,5.8,1.4,8.1,3c2,1.3,3.3,3,4,5.1c0.7,2.1,0.9,4.4,0.4,6.9c-0.9,5.1-3.1,9.6-6.7,13.5
		c-3.6,3.9-8.1,7-13.5,9.1l-0.1,0.5c4.5,1.1,7.8,3.1,9.8,6c2,2.9,2.6,6.7,1.8,11.3c-0.9,5-2.9,9.8-6.2,14.3
		C272.9,386.2,269,389.8,264.4,392.6z M277.7,330.4c0.3-1.7,0.2-3-0.1-4.1c-0.4-1.1-1-2-1.9-2.7c-1.5-1.1-3.4-1.8-5.9-2.1
		c-2.4-0.3-5.6-0.4-9.6-0.4h-13.4l-10.5,26.1h15.4c3.4,0,6.4-0.2,9-0.7c2.6-0.5,4.9-1.3,7-2.4c2.7-1.4,4.9-3.4,6.7-6.1
		C276.2,335.4,277.3,332.9,277.7,330.4z M269.9,368.2c0.4-2.2,0.3-4-0.2-5.4c-0.5-1.4-1.7-2.7-3.4-3.8c-1.4-1-3.3-1.6-5.7-2
		c-2.4-0.3-5.8-0.5-10.2-0.5h-17.8L219,390h16.2c5.3,0,9.6-0.3,13-0.9c3.4-0.6,6.4-1.6,9.1-3.1c3.4-1.9,6.3-4.4,8.4-7.6
		C267.8,375.3,269.2,371.8,269.9,368.2z M367.3,333.5l-26.6,66.3h-11.1l3-7.4c-4.7,2.9-9.1,5.1-13,6.8c-3.9,1.6-7.9,2.4-12,2.4
		c-5.7,0-9.9-1.4-12.6-4.3c-2.7-2.9-3.6-7.1-2.6-12.5c0.2-1.4,0.5-2.7,0.9-3.9c0.4-1.3,0.9-2.7,1.5-4.3l17.3-43h11.1l-15.1,37.7
		c-0.6,1.5-1.3,3.3-1.9,5.3c-0.7,2-1.1,3.5-1.3,4.7c-0.6,3.4-0.2,5.9,1.3,7.6c1.4,1.7,4.2,2.6,8.4,2.6c2.9,0,6.4-0.9,10.5-2.6
		c4.1-1.7,7.9-3.6,11.5-5.9l19.9-49.5C356.2,333.5,367.3,333.5,367.3,333.5z M453.8,307.3l-37.3,92.4h-11.1l2.8-7
		c-5.6,3.4-10.1,5.8-13.3,7c-3.3,1.2-6.7,1.8-10.3,1.8c-6.2,0-10.9-2-13.8-5.9c-3-4-3.8-9.7-2.5-17.3c1.1-6.4,3.1-12.4,6.1-18.1
		c3-5.7,6.5-10.6,10.6-14.9c4.1-4.2,8.6-7.6,13.7-10.1c5-2.5,10.1-3.7,15.2-3.7c3.5,0,6.7,0.4,9.5,1.1c2.8,0.8,5.4,1.9,7.7,3.4
		l11.6-28.8C442.6,307.3,453.8,307.3,453.8,307.3z M427.3,345.3c-2.4-1.4-4.9-2.4-7.3-3.1c-2.4-0.6-5.1-1-8-1c-4.1,0-8,1-11.5,3
		c-3.6,2-6.8,4.7-9.7,8.1c-2.7,3.1-4.9,6.9-6.8,11.3c-1.9,4.4-3.2,8.7-3.9,12.8c-0.8,4.8-0.4,8.5,1.2,11.1c1.6,2.6,4.8,3.8,9.5,3.8
		c3.3,0,6.9-0.8,10.6-2.5c3.8-1.7,7.3-3.5,10.6-5.5L427.3,345.3z M529.5,307.3l-37.3,92.4h-11.1l2.8-7c-5.6,3.4-10.1,5.8-13.3,7
		c-3.3,1.2-6.7,1.8-10.3,1.8c-6.2,0-10.9-2-13.8-5.9c-3-4-3.8-9.7-2.5-17.3c1.1-6.4,3.1-12.4,6.1-18.1c3-5.7,6.5-10.6,10.6-14.9
		c4.1-4.2,8.6-7.6,13.7-10.1c5-2.5,10.1-3.7,15.2-3.7c3.5,0,6.7,0.4,9.5,1.1c2.8,0.8,5.4,1.9,7.7,3.4l11.6-28.8
		C518.4,307.3,529.5,307.3,529.5,307.3z M503.1,345.3c-2.4-1.4-4.9-2.4-7.3-3.1c-2.4-0.6-5.1-1-8-1c-4.1,0-8,1-11.5,3
		c-3.6,2-6.8,4.7-9.7,8.1c-2.7,3.1-4.9,6.9-6.8,11.3c-1.9,4.4-3.2,8.7-3.9,12.8c-0.8,4.8-0.4,8.5,1.2,11.1c1.6,2.6,4.8,3.8,9.5,3.8
		c3.3,0,6.9-0.8,10.6-2.5c3.8-1.7,7.3-3.5,10.6-5.5L503.1,345.3z M575,359.5c0.4-1.2,0.7-2.1,0.9-2.9c0.2-0.8,0.4-1.7,0.6-2.6
		c0.7-4.2,0.1-7.5-1.8-9.9c-1.9-2.4-5.4-3.5-10.6-3.5c-5.7,0-11,1.7-16,5.2c-5,3.5-8.8,8.1-11.3,13.8
		C536.9,359.5,575,359.5,575,359.5z M545.3,401.3c-9.2,0-16-2.1-20.5-6.5c-4.5-4.3-6-10.6-4.6-18.9c2.1-12.2,7.7-22.6,16.9-31.3
		c9.2-8.7,19.4-13,30.8-13c7.5,0,13,1.9,16.3,5.6c3.3,3.8,4.4,9,3.3,15.8c-0.2,1.2-0.7,3.1-1.5,5.6c-0.8,2.6-1.9,5.6-3.2,9h-49
		c-0.4,1.1-0.8,2.3-1.1,3.4c-0.3,1.1-0.5,2.1-0.7,3.1c-1,5.6,0,9.9,2.9,13.1c2.9,3.2,7.4,4.8,13.7,4.8c4.4,0,9-0.9,13.9-2.5
		c4.9-1.7,9.1-3.6,12.6-5.7h0.6l-4.5,12.1c-2.1,0.7-4,1.4-5.7,1.9c-1.7,0.6-3.8,1.2-6.4,1.8c-2.6,0.6-4.8,1.1-6.8,1.4
		C550.6,401.2,548.2,401.3,545.3,401.3z M703.4,348.1c-0.2,1.3-0.5,2.7-1,4.2c-0.4,1.5-1,2.9-1.6,4.4l-17.4,43h-11.1l15.2-37.7
		c0.8-2.1,1.5-4,2.2-5.8c0.6-1.8,1-3.4,1.3-5c0.5-3,0.2-5.3-1.1-6.9c-1.2-1.6-4-2.4-8.2-2.4c-3.1,0-6.6,0.9-10.4,2.6
		c-3.8,1.7-7.6,3.8-11.5,6.1c-0.2,1-0.6,2.1-1,3.4c-0.4,1.3-0.8,2.4-1.2,3.4l-17.1,42.4h-11.1l15.2-37.7c0.9-2.5,1.7-4.5,2.3-6
		c0.6-1.6,1-3.2,1.3-4.8c0.6-3.6,0.1-6.1-1.7-7.4c-1.7-1.3-4.3-2-7.7-2c-2.4,0-5.1,0.6-8.3,1.8c-3.1,1.2-7.4,3.4-12.9,6.7l-20,49.4
		h-11.1l26.8-66.3h11.1l-3,7.4c4.7-2.9,8.9-5.2,12.7-6.8c3.8-1.6,7.7-2.4,11.6-2.4c4.5,0,7.9,1,10.4,2.9c2.5,1.9,3.9,4.5,4.2,7.9
		c5.9-3.8,11-6.5,15.5-8.2c4.4-1.7,8.7-2.5,12.7-2.5c5.8,0,9.9,1.4,12.4,4.3C703.5,338.8,704.3,342.9,703.4,348.1L703.4,348.1z
		 M765.9,359.5c0.4-1.2,0.7-2.1,0.9-2.9c0.2-0.8,0.4-1.7,0.6-2.6c0.7-4.2,0.1-7.5-1.8-9.9c-1.9-2.4-5.4-3.5-10.6-3.5
		c-5.7,0-11,1.7-16,5.2c-5,3.5-8.8,8.1-11.3,13.8H765.9L765.9,359.5z M736.1,401.3c-9.2,0-16-2.1-20.5-6.5c-4.5-4.3-6-10.6-4.6-18.9
		c2.1-12.2,7.7-22.6,16.9-31.3c9.2-8.7,19.4-13,30.8-13c7.5,0,13,1.9,16.3,5.6c3.3,3.8,4.4,9,3.3,15.8c-0.2,1.2-0.7,3.1-1.5,5.6
		c-0.8,2.6-1.9,5.6-3.2,9h-49c-0.4,1.1-0.8,2.3-1.1,3.4c-0.3,1.1-0.5,2.1-0.7,3.1c-1,5.6,0,9.9,2.9,13.1c2.9,3.2,7.4,4.8,13.7,4.8
		c4.4,0,9-0.9,13.9-2.5c4.9-1.7,9.1-3.6,12.6-5.7h0.6l-4.5,12.1c-2.1,0.7-4,1.4-5.7,1.9c-1.7,0.6-3.8,1.2-6.4,1.8
		c-2.6,0.6-4.8,1.1-6.8,1.4C741.4,401.2,739,401.3,736.1,401.3z M785.3,424.2h-12.4l24.3-28.5l-1.3-62.2h11.4l0.9,49.3l40.2-49.3
		h12.2L785.3,424.2z M910.2,359.5c0.4-1.2,0.7-2.1,0.9-2.9c0.2-0.8,0.4-1.7,0.6-2.6c0.7-4.2,0.1-7.5-1.8-9.9
		c-1.9-2.4-5.4-3.5-10.6-3.5c-5.7,0-11,1.7-16,5.2c-5,3.5-8.8,8.1-11.3,13.8C872,359.5,910.2,359.5,910.2,359.5z M880.5,401.3
		c-9.2,0-16-2.1-20.5-6.5c-4.5-4.3-6-10.6-4.6-18.9c2.1-12.2,7.7-22.6,16.9-31.3c9.2-8.7,19.4-13,30.8-13c7.5,0,13,1.9,16.3,5.6
		c3.3,3.8,4.4,9,3.3,15.8c-0.2,1.2-0.7,3.1-1.5,5.6c-0.8,2.6-1.9,5.6-3.2,9h-49c-0.4,1.1-0.8,2.3-1.1,3.4c-0.3,1.1-0.5,2.1-0.7,3.1
		c-1,5.6,0,9.9,2.9,13.1c2.9,3.2,7.4,4.8,13.7,4.8c4.4,0,9-0.9,13.9-2.5c4.9-1.7,9.1-3.6,12.6-5.7h0.6l-4.5,12.1
		c-2.1,0.7-4,1.4-5.7,1.9c-1.7,0.6-3.8,1.2-6.4,1.8c-2.6,0.6-4.8,1.1-6.8,1.4C885.7,401.2,883.3,401.3,880.5,401.3L880.5,401.3z
		 M984.8,345.1h-0.6c-1.5-0.4-2.9-0.7-4.3-0.8c-1.3-0.2-3-0.3-4.9-0.3c-3.7,0-7.6,0.8-11.5,2.5c-4,1.7-7.8,3.7-11.6,6.1L933,399.7
		h-11.3l26.5-66.3h11.3l-3.9,9.8c5.9-3.7,10.8-6.2,14.8-7.6c3.9-1.4,7.6-2.1,10.9-2.1c1.9,0,3.4,0,4.2,0.1c0.9,0.1,2.1,0.3,3.7,0.6
		L984.8,345.1L984.8,345.1z"/>
	<path id="path6" class="st0" d="M880,476.2c-2.5,1.5-5,2.6-7.6,3.2c-2.6,0.6-5.6,1-9.2,1h-19l20.9-51.9h14.9c3.8,0,6.6,0.1,8.4,0.4
		c1.8,0.3,3.4,0.8,4.7,1.8c1.1,0.8,1.9,1.8,2.4,3c0.4,1.2,0.5,2.6,0.3,4.1c-0.5,3-1.8,5.6-3.9,7.9c-2.1,2.3-4.7,4.1-7.9,5.3l0,0.3
		c2.7,0.6,4.6,1.8,5.8,3.5c1.2,1.7,1.5,3.9,1.1,6.6c-0.5,2.9-1.7,5.7-3.7,8.4C884.9,472.4,882.7,474.5,880,476.2z M887.8,439.7
		c0.2-1,0.1-1.8-0.1-2.4c-0.2-0.6-0.6-1.2-1.1-1.6c-0.9-0.7-2-1.1-3.4-1.2c-1.4-0.2-3.3-0.3-5.6-0.3h-7.9l-6.2,15.3h9
		c2,0,3.8-0.1,5.3-0.4c1.5-0.3,2.9-0.7,4.1-1.4c1.6-0.8,2.9-2,3.9-3.6C886.9,442.6,887.5,441.1,887.8,439.7z M883.2,461.8
		c0.2-1.3,0.2-2.3-0.1-3.1c-0.3-0.8-1-1.6-2-2.2c-0.8-0.6-2-1-3.4-1.2c-1.4-0.2-3.4-0.3-6-0.3h-10.4l-7.9,19.6h9.5
		c3.1,0,5.6-0.2,7.6-0.5c2-0.3,3.8-0.9,5.3-1.8c2-1.1,3.7-2.6,4.9-4.5C882,466,882.8,464,883.2,461.8L883.2,461.8z M940.3,441.5
		l-15.6,38.9h-6.5l1.7-4.3c-2.8,1.7-5.3,3-7.6,4c-2.3,1-4.7,1.4-7,1.4c-3.3,0-5.8-0.8-7.4-2.5c-1.6-1.7-2.1-4.1-1.5-7.4
		c0.1-0.8,0.3-1.6,0.5-2.3c0.2-0.7,0.5-1.6,0.9-2.5l10.1-25.2h6.5l-8.9,22.1c-0.4,0.9-0.7,1.9-1.1,3.1c-0.4,1.2-0.6,2.1-0.8,2.7
		c-0.3,2-0.1,3.5,0.7,4.5c0.8,1,2.5,1.5,4.9,1.5c1.7,0,3.8-0.5,6.1-1.5c2.4-1,4.6-2.1,6.7-3.4l11.6-29H940.3L940.3,441.5z
		 M991,426.1l-21.9,54.2h-6.5l1.6-4.1c-3.3,2-5.9,3.4-7.8,4.1c-1.9,0.7-3.9,1.1-6,1.1c-3.7,0-6.4-1.2-8.1-3.5
		c-1.8-2.3-2.2-5.7-1.5-10.1c0.6-3.7,1.8-7.3,3.6-10.6c1.7-3.3,3.8-6.2,6.2-8.7c2.4-2.5,5.1-4.4,8-5.9c2.9-1.5,5.9-2.2,8.9-2.2
		c2.1,0,3.9,0.2,5.6,0.7c1.7,0.4,3.2,1.1,4.5,2l6.8-16.9L991,426.1L991,426.1z M975.5,448.4c-1.4-0.8-2.8-1.4-4.3-1.8
		c-1.4-0.4-3-0.6-4.7-0.6c-2.4,0-4.7,0.6-6.8,1.7c-2.1,1.2-4,2.7-5.7,4.8c-1.6,1.8-2.9,4-4,6.6c-1.1,2.6-1.9,5.1-2.3,7.5
		c-0.5,2.8-0.3,5,0.7,6.5c1,1.5,2.8,2.2,5.6,2.2c2,0,4-0.5,6.2-1.5c2.2-1,4.3-2,6.2-3.2C966.5,470.7,975.5,448.4,975.5,448.4z
		 M992.8,480.3h-8.4l4-9.9h8.4L992.8,480.3z"/>
	<path id="path8" class="st0" d="M599.2,484.5v-41.3h15.6c2.7,0,4.8,0.1,6.3,0.4c2,0.3,3.7,1,5.1,1.9c1.4,1,2.5,2.3,3.3,4
		c0.8,1.7,1.3,3.6,1.3,5.6c0,3.5-1.1,6.5-3.4,8.9c-2.2,2.4-6.3,3.6-12.1,3.6h-10.6v16.8H599.2z M604.7,462.8h10.7c3.5,0,6-0.7,7.5-2
		c1.5-1.3,2.2-3.2,2.2-5.6c0-1.7-0.4-3.2-1.3-4.4c-0.9-1.2-2-2-3.5-2.4c-0.9-0.2-2.6-0.4-5.1-0.4h-10.6
		C604.7,448.1,604.7,462.8,604.7,462.8z M637,484.5v-29.9h4.6v4.6c1.2-2.1,2.2-3.5,3.2-4.2c1-0.7,2.1-1,3.3-1c1.7,0,3.5,0.5,5.2,1.6
		l-1.8,4.7c-1.2-0.7-2.5-1-3.7-1c-1.1,0-2.1,0.3-3,1c-0.9,0.7-1.5,1.6-1.9,2.8c-0.6,1.8-0.8,3.8-0.8,5.9v15.6H637z M675.8,480.8
		c-1.9,1.6-3.7,2.7-5.4,3.4c-1.7,0.7-3.6,1-5.6,1c-3.3,0-5.8-0.8-7.6-2.4c-1.8-1.6-2.7-3.6-2.7-6.1c0-1.5,0.3-2.8,1-4
		c0.7-1.2,1.5-2.2,2.6-2.9c1.1-0.7,2.3-1.3,3.7-1.7c1-0.3,2.5-0.5,4.5-0.8c4.1-0.5,7.1-1.1,9.1-1.7c0-0.7,0-1.1,0-1.3
		c0-2.1-0.5-3.5-1.4-4.4c-1.3-1.1-3.2-1.7-5.8-1.7c-2.4,0-4.2,0.4-5.3,1.3c-1.1,0.8-2,2.3-2.5,4.5l-5-0.7c0.5-2.1,1.2-3.8,2.2-5.2
		c1-1.3,2.5-2.3,4.5-3c2-0.7,4.2-1.1,6.8-1.1c2.6,0,4.6,0.3,6.2,0.9c1.6,0.6,2.8,1.4,3.5,2.3c0.8,0.9,1.3,2.1,1.6,3.5
		c0.2,0.9,0.2,2.4,0.2,4.7v6.7c0,4.7,0.1,7.7,0.3,8.9c0.2,1.3,0.6,2.5,1.2,3.6h-5.3C676.3,483.4,676,482.2,675.8,480.8L675.8,480.8z
		 M675.4,469.5c-1.8,0.7-4.6,1.4-8.3,1.9c-2.1,0.3-3.6,0.6-4.4,1c-0.9,0.4-1.5,0.9-2,1.6c-0.5,0.7-0.7,1.5-0.7,2.4
		c0,1.3,0.5,2.5,1.5,3.4c1,0.9,2.5,1.3,4.5,1.3c2,0,3.7-0.4,5.2-1.3c1.5-0.8,2.6-2,3.4-3.5c0.5-1.1,0.8-2.8,0.8-5L675.4,469.5
		L675.4,469.5z M712.5,484.5l-11.3-29.9h5.4l6.4,17.9c0.7,1.9,1.3,3.9,1.9,6c0.5-1.6,1.1-3.5,1.9-5.7l6.7-18.3h5.2l-11.3,29.9H712.5
		z M731.3,469.5c0-5.5,1.5-9.6,4.6-12.3c2.6-2.2,5.7-3.3,9.4-3.3c4.1,0,7.5,1.3,10.1,4c2.6,2.7,3.9,6.4,3.9,11.1
		c0,3.8-0.6,6.9-1.7,9.1c-1.2,2.2-2.8,3.9-5,5.1c-2.2,1.2-4.6,1.8-7.2,1.8c-4.2,0-7.6-1.3-10.2-4
		C732.6,478.4,731.3,474.6,731.3,469.5z M736.5,469.5c0,3.8,0.8,6.7,2.5,8.6c1.7,1.9,3.8,2.9,6.3,2.9c2.5,0,4.6-1,6.3-2.9
		c1.7-1.9,2.5-4.8,2.5-8.7c0-3.7-0.8-6.5-2.5-8.4c-1.7-1.9-3.8-2.9-6.3-2.9c-2.5,0-4.7,0.9-6.3,2.8
		C737.3,462.9,736.5,465.7,736.5,469.5L736.5,469.5z M784.8,473.5l5,0.7c-0.5,3.4-1.9,6.1-4.2,8c-2.2,1.9-5,2.9-8.3,2.9
		c-4.1,0-7.4-1.3-9.9-4c-2.5-2.7-3.7-6.5-3.7-11.5c0-3.2,0.5-6,1.6-8.5c1.1-2.4,2.7-4.2,4.9-5.4c2.2-1.2,4.6-1.8,7.1-1.8
		c3.2,0,5.9,0.8,8,2.5c2.1,1.6,3.4,4,4,7l-4.9,0.8c-0.5-2-1.3-3.5-2.5-4.5c-1.2-1-2.6-1.5-4.3-1.5c-2.6,0-4.6,0.9-6.2,2.7
		c-1.6,1.8-2.4,4.7-2.4,8.7c0,4,0.8,6.9,2.3,8.7c1.5,1.8,3.6,2.7,6,2.7c2,0,3.7-0.6,5-1.8C783.6,478,784.5,476.1,784.8,473.5z
		 M814.5,474.8l5.2,0.7c-0.8,3-2.3,5.4-4.6,7.1c-2.2,1.7-5.1,2.5-8.5,2.5c-4.4,0-7.8-1.3-10.4-4c-2.6-2.7-3.8-6.5-3.8-11.3
		c0-5,1.3-8.9,3.9-11.7c2.6-2.8,5.9-4.2,10.1-4.2c4,0,7.2,1.4,9.8,4.1c2.5,2.7,3.8,6.5,3.8,11.5c0,0.3,0,0.7,0,1.3h-22.3
		c0.2,3.3,1.1,5.8,2.8,7.5c1.7,1.7,3.7,2.6,6.2,2.6c1.9,0,3.4-0.5,4.7-1.5C812.7,478.5,813.8,477,814.5,474.8L814.5,474.8z
		 M797.9,466.7h16.7c-0.2-2.5-0.9-4.4-1.9-5.7c-1.6-2-3.7-2.9-6.3-2.9c-2.3,0-4.3,0.8-5.9,2.3C799,462,798.1,464.1,797.9,466.7
		L797.9,466.7z M806.3,446.1l-3.1,4.8h-5.8l6-7.9h5.4l6.4,7.9h-5.8L806.3,446.1z M827.5,484.5v-5.8h5.8v5.8c0,2.1-0.4,3.8-1.1,5.2
		c-0.7,1.3-2,2.3-3.6,3l-1.4-2.2c1.1-0.5,1.9-1.2,2.4-2.1c0.5-0.9,0.8-2.2,0.9-3.9H827.5L827.5,484.5z"/>
</g>
</svg>
