<?xml version="1.0" encoding="utf-8"?>
<!-- Generator: Adobe Illustrator 23.0.6, SVG Export Plug-In . SVG Version: 6.00 Build 0)  -->
<svg version="1.1" id="Camada_1" xmlns="http://www.w3.org/2000/svg" xmlns:xlink="http://www.w3.org/1999/xlink" x="0px" y="0px"
	 viewBox="0 0 1200 800" style="enable-background:new 0 0 1200 800;" xml:space="preserve">
<g>
	<path d="M906.39,363.28c0-13.1-0.75-18.93-9.85-18.93v-1.57h41.16c41.56,0,61.3,30.39,61.3,58.67c0,27.32-17.27,55.04-59.97,55.04
		h-42.49v-1.57c8.73,0,9.85-5.45,9.85-18.92V363.28z M920.8,432.21c0,16.89,3.8,20.11,13.86,20.11h4.56
		c26.95,0,43.08-21.07,43.08-50.68c0-26-10.61-54.67-44.95-54.67H920.8V432.21z"/>
	<path d="M1051.61,436c0,13.28,0.74,18.92,9.85,18.92v1.57h-34.12v-1.57c8.92,0,9.85-5.07,9.85-18.92v-72.72
		c0-13.66-0.55-18.93-9.85-18.93v-1.57h34.12v1.57c-9.11,0-9.85,5.83-9.85,18.93V436z"/>
	<path d="M158.09,342.79h-19.55v18.39h1.57c0.95-11.39,9.25-13.08,23.86-13.08h15.75V436c0,14.99-2.06,18.92-9.84,18.92v1.57h33.54
		v-1.57c-9.3,0-9.28-5.27-9.28-18.35V348.1h16.51c17.27,0,21.4,3.97,23.48,13.08h1.57v-18.39h-20.69H158.09z"/>
	<path d="M746.01,440.17l-31.11-97.39h-11.96l-29.6,93.41c-3.41,10.06-5.87,17.21-16.12,18.73v1.57h25.59v-1.57
		c-11.38-0.19-6.99-10-3.38-20.63l7.4-26.8h35.1l9.86,35.15c2.47,7.4,1.36,12.28-6.04,12.28v1.57h33.34v-1.57
		C749.4,454.93,749.24,450.24,746.01,440.17 M688.9,400.86l15.18-46.12h0.38l14.99,46.12H688.9z"/>
	<path d="M500.51,360.63c0-10.06,8.15-16.32,19.54-16.32c11,0,24.06,3.78,25.76,19.9h1.57v-21.42h-1.57
		c-0.97,1.29-3.01,1.52-4.32,1.52c-4.17,0-9.67-4.18-21.25-4.18c-17.64,0-29.59,11.39-29.59,28.09c0,8.53,2.65,18.61,9.3,25.26
		c12.15,12.14,41.37,23.35,41.37,42.15c0,11.76-8.74,19.35-21.82,19.35c-9.49,0-27.62-4.15-27.81-24.26h-1.6v25.78h1.56
		c1.26-2.06,4.23-3.03,5.85-3.03c3.6,0,13.28,5.69,24.85,5.69c17.08,0,30.93-13.86,30.93-30.93c0-7.21-1.9-16.53-9.49-24.12
		C528.21,388.54,500.51,380.75,500.51,360.63"/>
	<path d="M278.15,437.03c0,12.61,1.08,17.89,9.55,17.89v1.57h-33.56v-1.57c7.93,0,9.55-4.02,9.55-17.89v-75.15
		c0-13.5-1.26-17.53-9.55-17.53v-1.57h40.96c23.25,0,34.43,13.34,34.43,27.05c0,11.35-6.12,20.91-21.27,25.41
		c19.29,12.45,25.78,58.48,42.91,59.73v1.52h-21.1c-19.29-23.43-24.7-58.19-43.63-58.19h-8.3V437.03z M278.15,393.97h12.62
		c17.48,0,24.33-11.89,24.33-23.79c0-13.7-10.27-23.42-26.13-23.42h-10.82V393.97z"/>
	<path d="M589.55,360.63c0-10.06,8.15-16.32,19.55-16.32c11,0,24.05,3.78,25.75,19.9h1.57v-21.42h-1.57
		c-0.97,1.29-3.01,1.52-4.31,1.52c-4.17,0-9.67-4.18-21.25-4.18c-17.64,0-29.6,11.39-29.6,28.09c0,8.53,2.66,18.61,9.29,25.26
		c12.15,12.14,41.37,23.35,41.37,42.15c0,11.76-8.73,19.35-21.82,19.35c-9.49,0-27.62-4.15-27.81-24.26h-1.6v25.78h1.56
		c1.26-2.06,4.22-3.03,5.84-3.03c3.61,0,13.28,5.69,24.86,5.69c17.07,0,30.93-13.86,30.93-30.93c0-7.21-1.9-16.53-9.49-24.12
		C617.25,388.54,589.55,380.75,589.55,360.63"/>
	<path d="M803.05,437.14c0,12.61,1.07,17.9,9.55,17.9v1.57h-33.56v-1.57c7.93,0,9.55-4.03,9.55-17.9V362
		c0-13.5-1.26-17.54-9.55-17.54v-1.56H820c23.25,0,34.42,13.33,34.42,27.04c0,11.36-6.12,20.91-21.26,25.41
		c19.28,12.45,25.77,58.48,42.91,59.73v1.53h-21.1c-19.28-23.44-24.69-58.19-43.62-58.19h-8.3V437.14z M803.05,394.08h12.63
		c17.49,0,24.33-11.9,24.33-23.8c0-13.7-10.27-23.43-26.13-23.43h-10.82V394.08z"/>
	<path d="M441.11,342.79v1.58c8.71,0.38,9.38,6.37,9.38,18.86v51.39c0,22.16-6.19,39.3-29.01,39.3c-22.65,0-33.54-14.69-33.54-35.86
		v-55.01c0-13.82,1.43-18.68,10.33-18.68v-1.58h-34.88v1.58c8.52,0,10.14,4.48,10.14,18.86v53.68c0,29.93,14.39,42.96,43.99,42.96
		c31.42,0,37.93-20.78,37.93-50.87v-45.77c0-13.06,1.04-18.86,10.13-18.86v-1.58H441.11z"/>
</g>
</svg>
